<svg id="_007-behance" data-name="007-behance" xmlns="http://www.w3.org/2000/svg" width="38.471" height="24.044" viewBox="0 0 38.471 24.044">
  <path id="Trazado_13" data-name="Trazado 13" d="M19.817,21.246c0-2.962-1.409-5.152-4.32-5.973a5.052,5.052,0,0,0,3.232-4.927c0-4.7-3.514-5.846-7.568-5.846H0V28.1H11.474C15.776,28.1,19.817,26.041,19.817,21.246ZM5.2,8.528h4.883c1.877,0,3.567.526,3.567,2.7,0,2-1.314,2.81-3.174,2.81H5.2Zm0,15.562v-6.5h5.671c2.291,0,3.74.952,3.74,3.369,0,2.384-1.73,3.129-3.847,3.129Z" transform="translate(0 -4.5)" fill="#fff"/>
  <path id="Trazado_14" data-name="Trazado 14" d="M22.095,26.275c4.094,0,6.745-1.839,8.021-5.747H25.961c-.447,1.459-2.291,2.23-3.72,2.23-2.759,0-4.208-1.611-4.208-4.349H30.4c.021-.277.04-.577.04-.877,0-5.054-2.965-9.268-8.342-9.268-5.224,0-8.77,3.914-8.77,9.042C13.323,22.625,16.683,26.275,22.095,26.275Zm-.147-14.468c2.364,0,3.554,1.385,3.753,3.65H18.039a3.676,3.676,0,0,1,3.908-3.65Z" transform="translate(8.034 -2.23)" fill="#fff"/>
  <path id="Trazado_15" data-name="Trazado 15" d="M15.667,5.273h9.6V7.6h-9.6Z" transform="translate(9.447 -4.034)" fill="#fff"/>
</svg>
