<svg xmlns="http://www.w3.org/2000/svg" width="38.471" height="36.869" viewBox="0 0 38.471 36.869">
  <path id="_032-github" data-name="032-github" d="M19.235.5A19.069,19.069,0,0,0,0,19.4,18.934,18.934,0,0,0,13.152,37.336c.962.178,1.314-.407,1.314-.909,0-.449-.016-1.638-.024-3.214-5.351,1.14-6.479-2.536-6.479-2.536a5.039,5.039,0,0,0-2.14-2.765c-1.742-1.172.135-1.148.135-1.148A4.024,4.024,0,0,1,8.9,28.712a4.142,4.142,0,0,0,5.6,1.573,4,4,0,0,1,1.218-2.528c-4.272-.473-8.762-2.1-8.762-9.34a7.222,7.222,0,0,1,1.98-5.072,6.613,6.613,0,0,1,.168-5s1.611-.507,5.29,1.938a18.443,18.443,0,0,1,9.618,0c3.655-2.445,5.266-1.938,5.266-1.938a6.8,6.8,0,0,1,.192,5,7.251,7.251,0,0,1,1.972,5.072c0,7.261-4.5,8.86-8.776,9.324a4.485,4.485,0,0,1,1.3,3.5c0,2.529-.024,4.562-.024,5.176,0,.5.337,1.087,1.322.9a18.876,18.876,0,0,0,13.2-17.91A19.072,19.072,0,0,0,19.235.5Z" transform="translate(0 -0.5)" fill="#000"/>
</svg>
