<svg id="_052-linkedin" data-name="052-linkedin" xmlns="http://www.w3.org/2000/svg" width="31.233" height="31.233" viewBox="0 0 31.233 31.233">
  <path id="Trazado_10" data-name="Trazado 10" d="M28.667,28.95h.008V17.494c0-5.6-1.206-9.92-7.757-9.92a6.8,6.8,0,0,0-6.125,3.367H14.7V8.1H8.489V28.949h6.468V18.624c0-2.719.515-5.347,3.882-5.347,3.317,0,3.367,3.1,3.367,5.522V28.95Z" transform="translate(2.558 2.282)" fill="#fff"/>
  <path id="Trazado_11" data-name="Trazado 11" d="M.4,7.977H6.872V28.829H.4Z" transform="translate(0.119 2.404)" fill="#fff"/>
  <path id="Trazado_12" data-name="Trazado 12" d="M3.751,0A3.768,3.768,0,1,0,7.5,3.751,3.752,3.752,0,0,0,3.751,0Z" transform="translate(0 0)" fill="#fff"/>
</svg>
