<svg xmlns="http://www.w3.org/2000/svg" width="56.258" height="87.666" viewBox="0 0 56.258 87.666">
  <g id="Grupo_71" data-name="Grupo 71" transform="translate(-693.653 -1597.334)">
    <g id="css-3" transform="translate(693.653 1597.334)">
      <path id="Trazado_29" data-name="Trazado 29" d="M32,0l5.124,57.866L60.129,64.3l23-6.426L88.258,0Z" transform="translate(-32)" fill="#51b698"/>
      <path id="Trazado_30" data-name="Trazado 30" d="M149.161,101.3l-.647,7.269-1.953,21.792-14.575,4.03-.012,0-14.567-4.035-1.017-11.4h7.137l.53,5.911,7.92,2.138,0,0,7.932-2.138L141,115.024l-24.947.068-.707-6.735,26.253-.309.53-7.209-27.486.076-.462-6.707H149.8Z" transform="translate(-103.857 -82.378)" fill="#fafafa"/>
    </g>
    <text id="CSS3" transform="translate(720 1681)" fill="#51b698" font-size="14" font-family="KumbhSans-Light, Kumbh Sans" font-weight="300"><tspan x="-17.401" y="0">CSS3</tspan></text>
  </g>
</svg>
