<svg xmlns="http://www.w3.org/2000/svg" width="107.815" height="122.67" viewBox="0 0 107.815 122.67">
  <g id="design" transform="translate(-31)">
    <g id="Grupo_9" data-name="Grupo 9" transform="translate(31)">
      <g id="Grupo_8" data-name="Grupo 8">
        <path id="Trazado_5" data-name="Trazado 5" d="M135.222,21.563a3.594,3.594,0,0,0,3.594-3.594V3.594A3.594,3.594,0,0,0,135.222,0H120.846a3.594,3.594,0,0,0-3.594,3.594V7.188H95.689V3.594A3.594,3.594,0,0,0,92.1,0H77.72a3.594,3.594,0,0,0-3.594,3.594V7.188H52.563V3.594A3.594,3.594,0,0,0,48.969,0H34.594A3.594,3.594,0,0,0,31,3.594V17.969a3.594,3.594,0,0,0,3.594,3.594h3.594v79.544H34.594A3.594,3.594,0,0,0,31,104.7v14.375a3.594,3.594,0,0,0,3.594,3.594H48.969a3.594,3.594,0,0,0,3.594-3.594v-3.594H74.126v3.594a3.594,3.594,0,0,0,3.594,3.594H92.1a3.594,3.594,0,0,0,3.594-3.594v-3.594h21.563v3.594a3.594,3.594,0,0,0,3.594,3.594h14.375a3.594,3.594,0,0,0,3.594-3.594V104.7a3.594,3.594,0,0,0-3.594-3.594h-3.594V21.563ZM81.314,7.188H88.5v7.188H81.314Zm-43.126,0h7.188v7.188H38.188Zm7.188,108.295H38.188v-7.188h7.188Zm43.126,0H81.314v-7.188H88.5ZM117.252,104.7v3.594H95.689V104.7a3.594,3.594,0,0,0-3.594-3.594H77.72a3.594,3.594,0,0,0-3.594,3.594v3.594H52.563V104.7a3.594,3.594,0,0,0-3.594-3.594H45.375V21.563h3.594a3.594,3.594,0,0,0,3.594-3.594V14.375H74.126v3.594a3.594,3.594,0,0,0,3.594,3.594H92.1a3.594,3.594,0,0,0,3.594-3.594V14.375h21.563v3.594a3.594,3.594,0,0,0,3.594,3.594h3.594v79.544h-3.594A3.594,3.594,0,0,0,117.252,104.7Zm14.375,10.782H124.44v-7.188h7.188ZM124.44,14.375V7.188h7.188v7.188Z" transform="translate(-31)" fill="#fff"/>
      </g>
    </g>
    <g id="Grupo_11" data-name="Grupo 11" transform="translate(52.563 28.99)">
      <g id="Grupo_10" data-name="Grupo 10">
        <path id="Trazado_6" data-name="Trazado 6" d="M185.683,124.508c0-.075-.005-.151-.012-.227,0-.048-.01-.1-.016-.144a3.587,3.587,0,0,0-3.293-3.125c-.074-.006-.148-.01-.223-.011l-.046,0h-57.5l-.046,0c-.074,0-.148.006-.221.011a3.587,3.587,0,0,0-3.294,3.125c-.006.048-.012.1-.016.144-.006.076-.01.151-.012.227,0,.029,0,.057,0,.085,0,30.027-.005,28.823.016,29.063a3.542,3.542,0,0,0,3.172,3.21l.074.008c.111.01.222.018.334.018h57.5a3.553,3.553,0,0,0,3.592-3.461c0-.029,0-.057,0-.085V124.593C185.688,124.564,185.684,124.536,185.683,124.508Zm-18.814,3.679-13.527,6.763-13.527-6.763Zm-38.684,2.221,17.121,8.56-17.121,8.56Zm11.63,19.342,13.527-6.763,13.527,6.763Zm38.684-2.221-17.121-8.561,17.121-8.56Z" transform="translate(-120.998 -120.999)" fill="#fff"/>
      </g>
    </g>
    <g id="Grupo_13" data-name="Grupo 13" transform="translate(52.563 72.117)">
      <g id="Grupo_12" data-name="Grupo 12">
        <path id="Trazado_7" data-name="Trazado 7" d="M182.1,301h-57.5a3.594,3.594,0,1,0,0,7.188h57.5a3.594,3.594,0,1,0,0-7.188Z" transform="translate(-121 -301)" fill="#fff"/>
      </g>
    </g>
    <g id="Grupo_15" data-name="Grupo 15" transform="translate(59.751 86.492)">
      <g id="Grupo_14" data-name="Grupo 14">
        <path id="Trazado_8" data-name="Trazado 8" d="M197.72,361H154.594a3.594,3.594,0,1,0,0,7.188H197.72a3.594,3.594,0,1,0,0-7.188Z" transform="translate(-151 -361)" fill="#fff"/>
      </g>
    </g>
  </g>
</svg>
