<svg xmlns="http://www.w3.org/2000/svg" width="65.22" height="90" viewBox="0 0 65.22 90">
  <g id="Grupo_80" data-name="Grupo 80" transform="translate(-1159 -1742)">
    <text id="Premiere" transform="translate(1191 1828)" fill="#000" font-size="14" font-family="KumbhSans-Light, Kumbh Sans" font-weight="300"><tspan x="-29.982" y="0">Premiere</tspan></text>
    <g id="premiere-cc" transform="translate(1159 1611.254)">
      <path id="Trazado_88" data-name="Trazado 88" d="M24.8,155.549H84.588V213.7H24.8Z" transform="translate(-22.086 -22.086)" fill="#fff"/>
      <path id="Trazado_89" data-name="Trazado 89" d="M2.717,133.463H62.5v58.155H2.717ZM0,194.336H65.22v-63.59H0ZM39.132,157.6c0-.326,0-1.114-.136-2.636,0-.217.027-.272.217-.353a28.217,28.217,0,0,1,9.946-1.875c.217,0,.326.054.326.272v3.94c0,.217-.082.272-.3.272a15.642,15.642,0,0,0-5.136.543v17.12c0,.217-.082.326-.326.326H39.458c-.217,0-.326-.082-.326-.326V157.6ZM21.74,160.068c.625.054,1.114.054,2.2.054,3.18,0,6.169-1.114,6.169-5.435,0-3.451-2.12-5.191-5.761-5.191-1.087,0-2.12.054-2.609.082v10.49Zm-4.81-14.43c0-.19.054-.326.272-.326,1.739-.082,4.294-.136,6.984-.136,7.527,0,10.816,4.131,10.816,9.43,0,6.9-5,9.865-11.142,9.865-1.033,0-1.386-.054-2.12-.054v10.435c0,.217-.082.326-.326.326H17.229c-.217,0-.326-.082-.326-.326V145.638h.027Z" fill="#000"/>
    </g>
  </g>
</svg>
