<svg xmlns="http://www.w3.org/2000/svg" width="66" height="89.539" viewBox="0 0 66 89.539">
  <g id="Grupo_72" data-name="Grupo 72" transform="translate(-829 -1596.461)">
    <g id="logo-javascript" transform="translate(829.361 1596.461)">
      <path id="Trazado_45" data-name="Trazado 45" d="M0,0H63.8V63.8H0Z" fill="#51b698"/>
      <path id="Trazado_46" data-name="Trazado 46" d="M318.307,496.877c-.467-2.911-2.365-5.355-7.986-7.635-1.953-.9-4.13-1.54-4.779-3.02a3.294,3.294,0,0,1-.115-1.868c.418-1.692,2.438-2.219,4.039-1.734a4.444,4.444,0,0,1,2.6,2.407c2.753-1.783,2.747-1.771,4.669-3a11.9,11.9,0,0,0-1.54-2.062c-1.656-1.85-3.911-2.8-7.52-2.729-.625.079-1.255.164-1.88.243a8.528,8.528,0,0,0-4.524,2.668,8.352,8.352,0,0,0,1.516,11.892c3.62,2.717,8.939,3.335,9.618,5.876.661,3.111-2.286,4.117-5.215,3.76-2.159-.449-3.36-1.546-4.657-3.542-2.389,1.383-2.389,1.383-4.845,2.8a10.785,10.785,0,0,0,2.171,2.953c4.621,4.688,16.185,4.457,18.259-2.638A8.76,8.76,0,0,0,318.307,496.877Zm-23.893-19.26h-5.967c0,5.155-.024,10.273-.024,15.427,0,3.281.17,6.289-.364,7.21-.873,1.813-3.135,1.589-4.166,1.237a5.121,5.121,0,0,1-2.2-2.286,3.069,3.069,0,0,0-.34-.546q-2.429,1.483-4.851,2.971a9.589,9.589,0,0,0,3.517,4.027,11.584,11.584,0,0,0,8.526,1.049,7.534,7.534,0,0,0,4.815-3.772c1.358-2.5,1.067-5.537,1.055-8.89C294.444,488.575,294.414,483.1,294.414,477.617Z" transform="translate(-259.733 -448.297)" fill="#fff"/>
    </g>
    <text id="JavaScript" transform="translate(862 1682)" fill="#51b698" font-size="14" font-family="KumbhSans-Light, Kumbh Sans" font-weight="300"><tspan x="-32.177" y="0">JavaScript</tspan></text>
  </g>
</svg>
