<svg xmlns="http://www.w3.org/2000/svg" width="72" height="89.666" viewBox="0 0 72 89.666">
  <g id="Grupo_77" data-name="Grupo 77" transform="translate(-1155 -1597.334)">
    <text id="Photoshop" transform="translate(1191 1683)" fill="#51b698" font-size="14" font-family="KumbhSans-Light, Kumbh Sans" font-weight="300"><tspan x="-35.229" y="0">Photoshop</tspan></text>
    <g id="photoshop-cc" transform="translate(1159 1597.334)">
      <path id="Trazado_86" data-name="Trazado 86" d="M24.8,155.549H84.274V213.4H24.8Z" transform="translate(-22.1 -152.846)" fill="#fff"/>
      <path id="Trazado_87" data-name="Trazado 87" d="M2.7,133.449H62.174V191.3H2.7ZM0,194H64.878V130.746H0Zm43.738-37.3c-2.136,0-2.865,1.081-2.865,1.973,0,.973.487,1.649,3.352,3.136,4.244,2.055,5.569,4.028,5.569,6.92,0,4.325-3.3,6.65-7.758,6.65a11.76,11.76,0,0,1-5.542-1.162c-.189-.081-.216-.216-.216-.433v-3.974c0-.27.135-.352.324-.216a10.034,10.034,0,0,0,5.433,1.595c2.136,0,3.028-.892,3.028-2.109,0-.973-.622-1.838-3.352-3.244-3.839-1.838-5.433-3.7-5.433-6.812,0-3.487,2.73-6.38,7.461-6.38a12.43,12.43,0,0,1,4.839.757.6.6,0,0,1,.27.541v3.7c0,.216-.135.351-.406.27a9.132,9.132,0,0,0-4.7-1.216ZM20.49,159.914c.622.054,1.108.054,2.19.054,3.163,0,6.136-1.108,6.136-5.406,0-3.433-2.136-5.163-5.731-5.163-1.081,0-2.109.054-2.6.081ZM15.679,145.56c0-.189.379-.324.595-.324,1.73-.081,4.3-.135,6.974-.135,7.488,0,10.407,4.109,10.407,9.353,0,6.866-4.974,9.813-11.083,9.813-1.027,0-1.379-.054-2.109-.054v10.38c0,.216-.081.324-.324.324H16c-.216,0-.324-.081-.324-.324V145.56Z" transform="translate(0 -130.746)" fill="#51b698"/>
    </g>
  </g>
</svg>
