<svg xmlns="http://www.w3.org/2000/svg" width="63.01" height="68.099" viewBox="0 0 63.01 68.099">
  <g id="Grupo_73" data-name="Grupo 73" transform="translate(-558.869 -1763.901)">
    <g id="nodejs-1" transform="translate(558.869 1763.901)">
      <path id="Trazado_34" data-name="Trazado 34" d="M13.762,12.9a.725.725,0,0,0-.37-.627L7.352,8.8a.877.877,0,0,0-.328-.1H6.968a.677.677,0,0,0-.328.1L.6,12.277a.724.724,0,0,0-.37.627l.014,9.343a.354.354,0,0,0,.185.313.323.323,0,0,0,.356,0L4.376,20.51a.725.725,0,0,0,.37-.627V15.51a.724.724,0,0,1,.37-.627L6.64,14a.69.69,0,0,1,.37-.1.612.612,0,0,1,.356.1l1.524.883a.724.724,0,0,1,.37.627v4.373a.725.725,0,0,0,.37.627l3.589,2.051a.348.348,0,0,0,.37,0,.354.354,0,0,0,.185-.313L13.762,12.9ZM42.789.043a.392.392,0,0,0-.356,0,.371.371,0,0,0-.185.313V9.614a.256.256,0,0,1-.384.228l-1.51-.869a.734.734,0,0,0-.726,0l-6.039,3.49a.725.725,0,0,0-.37.627v6.965a.725.725,0,0,0,.37.627l6.039,3.49a.734.734,0,0,0,.726,0l6.039-3.49a.725.725,0,0,0,.37-.627V2.692a.731.731,0,0,0-.37-.641L42.789.043Zm-.555,17.718a.163.163,0,0,1-.086.157l-2.065,1.2a.211.211,0,0,1-.185,0l-2.065-1.2a.179.179,0,0,1-.086-.157V15.368a.163.163,0,0,1,.086-.157l2.065-1.2a.211.211,0,0,1,.185,0l2.065,1.2a.178.178,0,0,1,.086.157v2.393Zm20.652-2.45a.711.711,0,0,0,.356-.627V12.989a.742.742,0,0,0-.356-.627l-6-3.475a.734.734,0,0,0-.726,0l-6.039,3.489a.724.724,0,0,0-.37.627v6.965a.724.724,0,0,0,.37.627l6,3.418a.707.707,0,0,0,.712,0l3.632-2.022a.358.358,0,0,0,0-.627L54.4,17.875a.371.371,0,0,1-.185-.313V15.382a.354.354,0,0,1,.185-.313l1.894-1.082a.348.348,0,0,1,.37,0l1.894,1.082a.371.371,0,0,1,.185.313v1.709a.354.354,0,0,0,.185.313.348.348,0,0,0,.37,0l3.589-2.094Z" transform="translate(-0.231 0)" fill="#51b698"/>
      <path id="Trazado_35" data-name="Trazado 35" d="M447.578,121.434a.129.129,0,0,1,.142,0l1.154.669a.149.149,0,0,1,.071.128v1.339a.149.149,0,0,1-.071.128l-1.154.669a.129.129,0,0,1-.142,0l-1.154-.669a.15.15,0,0,1-.071-.128v-1.339a.149.149,0,0,1,.071-.128Z" transform="translate(-391.375 -106.451)" fill="#51b698"/>
      <g id="Grupo_34" data-name="Grupo 34" transform="translate(16.493 7.648)">
        <path id="Trazado_36" data-name="Trazado 36" d="M7.541,1.166a.734.734,0,0,0-.726,0l-6,3.461a.711.711,0,0,0-.356.627V12.19a.742.742,0,0,0,.356.627l6,3.461a.734.734,0,0,0,.726,0l6-3.461a.711.711,0,0,0,.356-.627V5.254a.742.742,0,0,0-.356-.627Z" transform="translate(-0.405 0.102)" fill="#51b698"/>
        <g id="Grupo_32" data-name="Grupo 32" transform="translate(0 1.169)">
          <path id="Trazado_37" data-name="Trazado 37" d="M6.395,1.149.385,4.61A.739.739,0,0,0,0,5.237v6.936a.686.686,0,0,0,.185.456L6.936,1.064a.814.814,0,0,0-.541.085Zm.584,15.183a.876.876,0,0,0,.171-.071L13.16,12.8a.724.724,0,0,0,.37-.627V5.237a.726.726,0,0,0-.214-.5L6.979,16.332Z" transform="translate(0 -1.051)" fill="none"/>
          <path id="Trazado_38" data-name="Trazado 38" d="M14.463,4.8,8.438,1.343a.989.989,0,0,0-.185-.071L1.5,12.837a.75.75,0,0,0,.2.171l6.025,3.461a.694.694,0,0,0,.555.071L14.62,4.947a.747.747,0,0,0-.157-.142Z" transform="translate(-1.317 -1.245)" fill="#51b698"/>
        </g>
        <g id="Grupo_33" data-name="Grupo 33" transform="translate(0 0)">
          <path id="Trazado_39" data-name="Trazado 39" d="M13.531,12.266V5.33a.739.739,0,0,0-.384-.627L7.121,1.242a.629.629,0,0,0-.228-.085l6.594,11.266a.287.287,0,0,0,.043-.157ZM.384,4.7A.739.739,0,0,0,0,5.33v6.936a.77.77,0,0,0,.384.627l6.025,3.461a.671.671,0,0,0,.47.085L.427,4.689.385,4.7Z" transform="translate(0 0.025)" fill="none"/>
          <path id="Trazado_40" data-name="Trazado 40" d="M49.783.809,49.7.852h.114Z" transform="translate(-43.574 -0.809)" fill="#51b698" fill-rule="evenodd"/>
          <path id="Trazado_41" data-name="Trazado 41" d="M16.1,22.046a.81.81,0,0,0,.356-.456L9.846,10.31a.723.723,0,0,0-.513.085L3.351,13.842,9.8,25.607a.993.993,0,0,0,.271-.085L16.1,22.046Z" transform="translate(-2.938 -9.128)" fill="#51b698" fill-rule="evenodd"/>
          <path id="Trazado_42" data-name="Trazado 42" d="M111,104.205l-.043-.071v.1l.043-.028Z" transform="translate(-97.28 -91.401)" fill="#51b698" fill-rule="evenodd"/>
          <path id="Trazado_43" data-name="Trazado 43" d="M62.1,102.292l-6.01,3.461a.859.859,0,0,1-.271.085l.114.214,6.666-3.86v-.086l-.171-.285A.662.662,0,0,1,62.1,102.292Z" transform="translate(-48.944 -89.374)" fill="#51b698" fill-rule="evenodd"/>
          <path id="Trazado_44" data-name="Trazado 44" d="M62.1,102.292l-6.01,3.461a.859.859,0,0,1-.271.085l.114.214,6.666-3.86v-.086l-.171-.285A.662.662,0,0,1,62.1,102.292Z" transform="translate(-48.944 -89.374)" fill="#51b698" fill-rule="evenodd"/>
        </g>
      </g>
    </g>
    <text id="NodeJS" transform="translate(589 1828)" fill="#51b698" font-size="14" font-family="KumbhSans-Light, Kumbh Sans" font-weight="300"><tspan x="-24.001" y="0">NodeJS</tspan></text>
  </g>
</svg>
