<svg xmlns="http://www.w3.org/2000/svg" width="86" height="89.519" viewBox="0 0 86 89.519">
  <g id="Grupo_81" data-name="Grupo 81" transform="translate(-1286 -1742.481)">
    <text id="After_Effects" data-name="After Effects" transform="translate(1329 1828)" fill="#51b698" font-size="14" font-family="KumbhSans-Light, Kumbh Sans" font-weight="300"><tspan x="-42.191" y="0">After Effects</tspan></text>
    <text id="XD" transform="translate(1330 1781)" fill="#51b698" font-size="10" font-family="KumbhSans-Light, Kumbh Sans" font-weight="300"><tspan x="-7.473" y="0">XD</tspan></text>
    <g id="after-effects-cc" transform="translate(1296.537 1742.481)">
      <path id="Trazado_79" data-name="Trazado 79" d="M24.8,155.549H84.274V213.4H24.8Z" transform="translate(-22.1 -152.846)" fill="#fff"/>
      <path id="Trazado_80" data-name="Trazado 80" d="M2.7,133.449H62.174V191.3H2.7ZM0,194H64.878V130.746H0Zm45.9-32.763a11.955,11.955,0,0,0,2-.054c0-.189.054-.324.054-.46,0-1.46-.7-4.163-3.514-4.163-2.6,0-3.7,2.271-3.974,4.677H45.9Zm-5.487,3.7c.054,3.649,1.784,6.109,5.893,6.109a10.58,10.58,0,0,0,4.406-.838c.189-.081.324-.054.324.189v3.379a.572.572,0,0,1-.27.541,12.258,12.258,0,0,1-5.434,1.027c-7.136,0-9.813-5.271-9.813-11.137,0-6.38,3.3-11.6,9.11-11.6,5.893,0,7.948,4.947,7.948,8.975a13.67,13.67,0,0,1-.216,2.865.4.4,0,0,1-.351.351A39.135,39.135,0,0,1,47.5,165H40.413Zm-14.489-2.757c-.757-3-2.6-9.542-3.271-12.705H22.6c-.568,3.163-2.055,8.515-3.163,12.705Zm-7.6,4.379-2.135,8.083c-.054.216-.135.3-.406.3H11.813c-.27,0-.324-.081-.27-.405L19.22,147.7a8.286,8.286,0,0,0,.27-2.217c0-.189.081-.27.216-.27h5.677c.189,0,.27.054.324.27l8.6,29.114c.054.216,0,.351-.216.351h-4.46a.366.366,0,0,1-.406-.27l-2.217-8.11H18.328Z" transform="translate(0 -130.746)" fill="#51b698"/>
    </g>
  </g>
</svg>
