<svg xmlns="http://www.w3.org/2000/svg" width="64.878" height="89.666" viewBox="0 0 64.878 89.666">
  <g id="Grupo_76" data-name="Grupo 76" transform="translate(-1027 -1597.334)">
    <text id="Illustrator" transform="translate(1060 1683)" fill="#51b698" font-size="14" font-family="KumbhSans-Light, Kumbh Sans" font-weight="300"><tspan x="-30.933" y="0">Illustrator</tspan></text>
    <g id="adobe-illustrator-cc" transform="translate(1027 1597.334)">
      <path id="Trazado_81" data-name="Trazado 81" d="M24.8,155.549H84.274V213.4H24.8Z" transform="translate(-22.1 -152.846)" fill="#fff"/>
      <path id="Trazado_82" data-name="Trazado 82" d="M2.7,133.449H62.174V191.3H2.7ZM0,194H64.878V130.746H0Zm42.495-40.711c0-.216.081-.324.324-.324h4.244c.216,0,.324.081.324.324V174.62c0,.216-.054.324-.324.324h-4.19c-.27,0-.351-.135-.351-.351v-21.3h-.027Zm-.3-6.136a2.757,2.757,0,0,1,5.515,0,2.584,2.584,0,0,1-2.811,2.757A2.541,2.541,0,0,1,42.2,147.155Zm-12.165,15.03c-.757-3-2.541-9.542-3.217-12.705h-.054c-.568,3.163-2,8.515-3.136,12.705Zm-7.515,4.379-2.136,8.11c-.054.216-.135.27-.405.27H16c-.27,0-.324-.081-.27-.405l7.677-26.87a8.756,8.756,0,0,0,.27-2.244c0-.189.081-.27.216-.27h5.677c.189,0,.27.054.324.27l8.6,29.168c.054.216,0,.351-.216.351H33.79c-.216,0-.351-.054-.405-.243l-2.217-8.137h-8.65Z" transform="translate(0 -130.746)" fill="#51b698"/>
    </g>
  </g>
</svg>
