<svg xmlns="http://www.w3.org/2000/svg" width="68.634" height="87.703" viewBox="0 0 68.634 87.703">
  <g id="Grupo_75" data-name="Grupo 75" transform="translate(-828.366 -1744.297)">
    <text id="React" transform="translate(862 1828)" fill="#51b698" font-size="14" font-family="KumbhSans-Light, Kumbh Sans" font-weight="300"><tspan x="-18.768" y="0">React</tspan></text>
    <g id="react-2" transform="translate(828.366 1744.297)">
      <path id="Trazado_77" data-name="Trazado 77" d="M244.334,108.568c0-4.547-5.694-8.856-14.424-11.528,2.015-8.9,1.119-15.976-2.826-18.243a6.134,6.134,0,0,0-3.134-.783v3.12a3.24,3.24,0,0,1,1.595.364c1.9,1.091,2.728,5.246,2.084,10.59-.154,1.315-.406,2.7-.713,4.113a67.8,67.8,0,0,0-8.884-1.525,68.245,68.245,0,0,0-5.82-6.995c4.561-4.239,8.842-6.561,11.752-6.561V78c-3.847,0-8.884,2.742-13.976,7.5-5.092-4.729-10.129-7.443-13.976-7.443v3.12c2.9,0,7.191,2.308,11.752,6.519a66.072,66.072,0,0,0-5.778,6.981,65.331,65.331,0,0,0-8.9,1.539c-.322-1.4-.56-2.756-.727-4.057-.658-5.344.154-9.5,2.043-10.6a3.113,3.113,0,0,1,1.609-.364V78.07a6.238,6.238,0,0,0-3.162.783c-3.931,2.266-4.812,9.331-2.784,18.2-8.7,2.686-14.368,6.981-14.368,11.514s5.694,8.856,14.424,11.528c-2.015,8.9-1.119,15.976,2.826,18.243a6.15,6.15,0,0,0,3.148.783c3.847,0,8.884-2.742,13.976-7.5,5.092,4.729,10.129,7.443,13.976,7.443a6.238,6.238,0,0,0,3.162-.783c3.931-2.266,4.813-9.331,2.784-18.2C238.669,117.41,244.334,113.1,244.334,108.568ZM226.12,99.237c-.518,1.8-1.161,3.665-1.889,5.526-.574-1.119-1.175-2.238-1.833-3.358s-1.329-2.21-2.015-3.274c1.987.294,3.9.658,5.736,1.105Zm-6.407,14.9c-1.091,1.889-2.21,3.679-3.372,5.344-2.085.182-4.2.28-6.323.28s-4.225-.1-6.3-.266q-1.742-2.5-3.386-5.316-1.595-2.749-2.91-5.568c.867-1.875,1.847-3.749,2.9-5.582,1.091-1.889,2.21-3.679,3.372-5.344,2.085-.182,4.2-.28,6.323-.28s4.225.1,6.3.266q1.742,2.5,3.386,5.316,1.595,2.749,2.91,5.568C221.727,110.429,220.762,112.3,219.712,114.136Zm4.519-1.819c.755,1.875,1.4,3.749,1.931,5.568-1.833.448-3.763.825-5.764,1.119.686-1.077,1.371-2.182,2.015-3.316s1.245-2.252,1.819-3.372Zm-14.186,14.927a57.668,57.668,0,0,1-3.889-4.477c1.259.056,2.546.1,3.847.1s2.616-.028,3.889-.1A54.6,54.6,0,0,1,210.045,127.244ZM199.637,119c-1.987-.294-3.9-.658-5.736-1.105.518-1.8,1.161-3.665,1.889-5.526.574,1.119,1.175,2.238,1.833,3.358S198.951,117.941,199.637,119Zm10.339-29.113a57.675,57.675,0,0,1,3.889,4.477c-1.259-.056-2.546-.1-3.847-.1s-2.616.028-3.889.1A54.614,54.614,0,0,1,209.975,89.891Zm-10.353,8.24c-.685,1.077-1.371,2.182-2.015,3.316s-1.245,2.238-1.819,3.358c-.755-1.875-1.4-3.749-1.931-5.568C195.692,98.8,197.622,98.425,199.623,98.131Zm-12.661,17.515c-4.952-2.112-8.156-4.882-8.156-7.079s3.2-4.98,8.156-7.079c1.2-.518,2.518-.979,3.875-1.413a67.2,67.2,0,0,0,3.148,8.52,66.249,66.249,0,0,0-3.106,8.478c-1.385-.434-2.7-.909-3.917-1.427Zm7.527,19.992c-1.9-1.091-2.728-5.246-2.085-10.59.154-1.315.406-2.7.714-4.113A67.8,67.8,0,0,0,202,122.46a68.244,68.244,0,0,0,5.82,6.995c-4.561,4.239-8.842,6.561-11.751,6.561a3.339,3.339,0,0,1-1.581-.378Zm33.184-10.66c.658,5.344-.154,9.5-2.043,10.6a3.113,3.113,0,0,1-1.609.364c-2.9,0-7.191-2.308-11.751-6.519a66.076,66.076,0,0,0,5.778-6.981,65.326,65.326,0,0,0,8.9-1.539A39.173,39.173,0,0,1,227.673,124.978Zm5.386-9.331c-1.2.518-2.518.979-3.875,1.413a67.187,67.187,0,0,0-3.148-8.52,66.245,66.245,0,0,0,3.106-8.478c1.385.434,2.7.909,3.931,1.427,4.952,2.112,8.156,4.882,8.156,7.079S238.011,113.548,233.059,115.647Z" transform="translate(-175.7 -78)" fill="#51b698"/>
      <circle id="Elipse_21" data-name="Elipse 21" cx="6.393" cy="6.393" r="6.393" transform="translate(27.91 24.175)" fill="#51b698"/>
    </g>
  </g>
</svg>
