<svg xmlns="http://www.w3.org/2000/svg" width="81.611" height="87.703" viewBox="0 0 81.611 87.703">
  <g id="Grupo_74" data-name="Grupo 74" transform="translate(-689.895 -1744.297)">
    <path id="sass-1" d="M70.139,35.368a16.813,16.813,0,0,0-7.4,1.722,15.214,15.214,0,0,1-1.658-3.826,10.582,10.582,0,0,1-.143-3.22,25.8,25.8,0,0,1,.972-3.475c-.016-.143-.176-.845-1.817-.861s-3.061.319-3.22.749A18.307,18.307,0,0,0,56.19,28.9c-.287,1.5-3.284,6.807-4.99,9.6a9.79,9.79,0,0,1-1.132-2.806,10.581,10.581,0,0,1-.143-3.22,25.815,25.815,0,0,1,.972-3.475c-.016-.143-.175-.845-1.817-.861s-3.061.319-3.22.749-.335,1.451-.685,2.439c-.335.988-4.32,9.852-5.356,12.163-.526,1.18-.988,2.12-1.323,2.758s-.016.048-.048.112c-.287.542-.446.845-.446.845v.016c-.223.4-.462.781-.574.781a5.316,5.316,0,0,1,.032-2.534c.59-3.077,2.025-7.875,2.009-8.05,0-.08.271-.925-.925-1.355a1.453,1.453,0,0,0-1.674.287c-.1,0-.175.255-.175.255s1.291-5.4-2.471-5.4c-2.359,0-5.611,2.567-7.221,4.91-1.02.558-3.188,1.737-5.484,3-.877.478-1.785.988-2.646,1.451l-.175-.192C14.138,35.5,5.705,32.052,6.056,25.517c.128-2.375.956-8.64,16.2-16.228,12.482-6.217,22.477-4.511,24.214-.717,2.471,5.42-5.34,15.495-18.316,16.945-4.942.558-7.54-1.355-8.194-2.072-.685-.749-.781-.781-1.036-.638-.414.223-.159.893,0,1.291a7.7,7.7,0,0,0,4.687,3.682c2.375.781,8.178,1.212,15.192-1.5,7.859-3.045,14-11.493,12.195-18.555C49.161.537,37.237-1.822,25.966,2.179,19.255,4.57,11.986,8.3,6.757,13.194.54,19-.448,24.066-.033,26.17c1.451,7.508,11.8,12.4,15.941,16.021-.207.111-.4.223-.574.319-2.072,1.02-9.963,5.149-11.94,9.517-2.232,4.942.351,8.5,2.072,8.975,5.324,1.483,10.776-1.18,13.725-5.563,2.933-4.384,2.582-10.075,1.227-12.673l-.048-.1L22,41.713c1.052-.622,2.088-1.2,3-1.69a19.848,19.848,0,0,0-1.068,5.42c-.223,2.806.925,6.44,2.439,7.875a2.7,2.7,0,0,0,1.961.638c1.754,0,2.551-1.451,3.427-3.188,1.084-2.12,2.04-4.575,2.04-4.575s-1.2,6.647,2.072,6.647c1.2,0,2.391-1.546,2.933-2.343v.016s.032-.048.1-.159.131-.2.191-.3v-.032c.478-.829,1.546-2.726,3.14-5.866,2.056-4.049,4.033-9.118,4.033-9.118a29.1,29.1,0,0,0,.781,3.284,31.425,31.425,0,0,0,1.706,3.826c-.478.67-.765,1.052-.765,1.052l.016.016c-.382.51-.813,1.052-1.259,1.594a46.331,46.331,0,0,0-3.826,4.8,1.313,1.313,0,0,0,.351,1.754,3.191,3.191,0,0,0,2.009.319,8.947,8.947,0,0,0,3-.686,10.379,10.379,0,0,0,2.582-1.355,5.749,5.749,0,0,0,2.471-5.085,10.224,10.224,0,0,0-.941-3.587c.143-.207.287-.415.43-.638a67.291,67.291,0,0,0,4.463-7.731,29.1,29.1,0,0,0,.781,3.284,23.023,23.023,0,0,0,1.451,3.284,14.172,14.172,0,0,0-4.352,5.627c-.941,2.71-.207,3.937,1.18,4.224a4.243,4.243,0,0,0,2.184-.446,9.9,9.9,0,0,0,2.758-1.419c1.594-1.18,3.124-2.822,3.045-5.037a9.657,9.657,0,0,0-.685-2.981,15.53,15.53,0,0,1,7.907-.909c7.094.829,8.5,5.261,8.226,7.11a4.762,4.762,0,0,1-2.248,3.188c-.494.3-.654.415-.606.638.064.335.287.319.717.255a5.518,5.518,0,0,0,3.858-4.926c.191-4.384-3.969-9.167-11.35-9.119ZM15.429,53.812c-2.343,2.567-5.643,3.539-7.046,2.71-1.514-.877-.925-4.655,1.961-7.381a37.508,37.508,0,0,1,5.532-4.129c.335-.207.845-.51,1.451-.877a1.7,1.7,0,0,1,.159-.1c.112-.064.239-.143.367-.223A10.168,10.168,0,0,1,15.429,53.812ZM32.566,42.159c-.813,1.993-2.535,7.11-3.571,6.823-.893-.239-1.435-4.113-.176-7.939a17.722,17.722,0,0,1,2.79-5.117C32.9,34.491,34.3,34.013,34.654,34.6,35.069,35.368,33.076,40.916,32.566,42.159Zm14.14,6.759c-.351.176-.67.3-.813.207-.112-.064.143-.3.143-.3s1.769-1.9,2.471-2.774c.4-.51.877-1.1,1.387-1.769v.191c0,2.3-2.2,3.826-3.188,4.447Zm10.9-2.487c-.255-.191-.223-.781.638-2.63a9.856,9.856,0,0,1,2.423-3.124,3.943,3.943,0,0,1,.239,1.371A4.485,4.485,0,0,1,57.609,46.431Z" transform="translate(690.01 1744.057)" fill="#51b698"/>
    <text id="Sass" transform="translate(730 1828)" fill="#51b698" font-size="14" font-family="KumbhSans-Light, Kumbh Sans" font-weight="300"><tspan x="-13.795" y="0">Sass</tspan></text>
  </g>
</svg>
