<svg id="vector" xmlns="http://www.w3.org/2000/svg" width="123" height="123" viewBox="0 0 123 123">
  <g id="Grupo_5" data-name="Grupo 5">
    <g id="Grupo_4" data-name="Grupo 4">
      <path id="Trazado_3" data-name="Trazado 3" d="M119.4,0H104.982a3.6,3.6,0,0,0-3.6,3.6v3.6H71.691a10.808,10.808,0,0,0-20.381,0H21.621V3.6a3.6,3.6,0,0,0-3.6-3.6H3.6A3.6,3.6,0,0,0,0,3.6V18.018a3.6,3.6,0,0,0,3.6,3.6H18.018a3.6,3.6,0,0,0,3.6-3.6V14.366H36.606a47.342,47.342,0,0,0-21.854,36.91,10.806,10.806,0,1,0,7.222.072A40.236,40.236,0,0,1,51.818,15.611a10.8,10.8,0,0,0,19.365,0,40.236,40.236,0,0,1,29.843,35.737,10.815,10.815,0,1,0,7.222-.072A47.258,47.258,0,0,0,86.394,14.414h14.985v3.6a3.6,3.6,0,0,0,3.6,3.6H119.4a3.6,3.6,0,0,0,3.6-3.6V3.6A3.6,3.6,0,0,0,119.4,0ZM14.414,14.414H7.207V7.207h7.207ZM18.258,65.1a3.6,3.6,0,1,1,3.6-3.6A3.608,3.608,0,0,1,18.258,65.1ZM61.5,14.414a3.6,3.6,0,1,1,3.6-3.6A3.608,3.608,0,0,1,61.5,14.414ZM104.742,57.9a3.6,3.6,0,1,1-3.6,3.6A3.608,3.608,0,0,1,104.742,57.9Zm11.051-43.482h-7.207V7.207h7.207Z" fill="#000"/>
    </g>
  </g>
  <g id="Grupo_7" data-name="Grupo 7" transform="translate(29.068 29.071)">
    <g id="Grupo_6" data-name="Grupo 6">
      <path id="Trazado_4" data-name="Trazado 4" d="M185.258,165.855,156.43,122.613l0,0-.032-.045c-.049-.072-.1-.141-.156-.209a3.6,3.6,0,0,0-5.77.209l-.032.045,0,0-28.828,43.242a3.6,3.6,0,0,0,.45,4.547,45.654,45.654,0,0,1,13.012,26.642,18.571,18.571,0,0,0-1.612,1.461,18.265,18.265,0,0,0-5.249,12.831,3.6,3.6,0,0,0,3.6,3.6h43.242a3.6,3.6,0,0,0,3.6-3.6,18.267,18.267,0,0,0-5.248-12.831,18.573,18.573,0,0,0-1.612-1.461A45.648,45.648,0,0,1,184.808,170.4,3.6,3.6,0,0,0,185.258,165.855Zm-31.826-1.6a3.6,3.6,0,1,1-3.6,3.6A3.608,3.608,0,0,1,153.432,164.25Zm-17.4,43.482a11.007,11.007,0,0,1,10.2-7.447h14.414a11.007,11.007,0,0,1,10.2,7.447Zm28.993-14.106a17.7,17.7,0,0,0-4.383-.548H146.225a17.693,17.693,0,0,0-4.383.549,52.879,52.879,0,0,0-12.648-26.161l20.635-30.953v21.15a10.811,10.811,0,1,0,7.207,0v-21.15l20.635,30.953A52.871,52.871,0,0,0,165.022,193.627Z" transform="translate(-121 -121.01)" fill="#000"/>
    </g>
  </g>
</svg>
