<svg xmlns="http://www.w3.org/2000/svg" width="63.76" height="90.189" viewBox="0 0 63.76 90.189">
  <g id="Grupo_78" data-name="Grupo 78" transform="translate(-1298 -1596.811)">
    <text id="XD" transform="translate(1330 1683)" fill="#51b698" font-size="14" font-family="KumbhSans-Light, Kumbh Sans" font-weight="300"><tspan x="-10.462" y="0">XD</tspan></text>
    <g id="adobe-xd" transform="translate(1298 1596.811)">
      <path id="Trazado_83" data-name="Trazado 83" d="M10,10H68.447V66.853H10Z" transform="translate(-7.343 -7.343)" fill="#fff"/>
      <path id="Trazado_84" data-name="Trazado 84" d="M0,0V62.166H63.76V0ZM2.657,2.657H61.1V59.509H2.657Z" fill="#51b698"/>
      <path id="Trazado_85" data-name="Trazado 85" d="M79.5,66.871a3.648,3.648,0,0,0-1.541-.266c-3.347,0-5.579,2.577-5.579,6.854,0,4.888,2.285,6.854,5.26,6.854a5.012,5.012,0,0,0,1.833-.292V66.871Zm-11.9,6.8c0-6.19,3.985-11.025,10.52-11.025A11.783,11.783,0,0,1,79.5,62.7V55.792a.266.266,0,0,1,.266-.266h4.277c.213,0,.266.08.266.213V80.021a18.922,18.922,0,0,0,.133,2.6c0,.186,0,.213-.159.292a15.825,15.825,0,0,1-6.8,1.541c-5.765,0-9.883-3.56-9.883-10.786Zm-9.059-4.3L65.98,83.793c.133.213.053.425-.159.425H61.2a.521.521,0,0,1-.558-.345q-2.55-5.26-5.207-10.919H55.38c-1.594,3.56-3.347,7.439-5.048,10.945a.51.51,0,0,1-.478.292h-4.41c-.266,0-.292-.213-.159-.372l7.279-14L45.523,55.9a.235.235,0,0,1,.186-.4h4.569c.266,0,.4.053.478.292,1.674,3.533,3.374,7.014,4.968,10.574h.053c1.541-3.507,3.241-7.04,4.862-10.52.133-.213.213-.345.478-.345H65.4c.213,0,.292.159.159.4Z" transform="translate(-33.197 -40.756)" fill="#51b698"/>
    </g>
  </g>
</svg>
